<?xml version="1.0" encoding="utf-8"?>
<!-- Generator: Adobe Illustrator 24.0.0, SVG Export Plug-In . SVG Version: 6.00 Build 0)  -->
<svg version="1.2" baseProfile="tiny" id="Layer_1" xmlns="http://www.w3.org/2000/svg" xmlns:xlink="http://www.w3.org/1999/xlink"
	 x="0px" y="0px" viewBox="0 0 1800 1800" xml:space="preserve">
<rect y="822.1" fill="#009999" width="1800" height="977.9"/>
<path fill="#008296" d="M0,1443.6l60,26.6c60,28.6,180,78.7,300,107.3c120,26.6,240,26.6,360,0c120-28.6,393.7-29.4,513.7-298.9
	c111.3-247.7,252-182.3,327.3-315.4c23.8-41.9,149.4-115.4,161.8-120.2c25.6-10.1,51.6-9.3,77.3,0V641.3V0h-60c-60,0-180,0-300,0
	s-240,0-360,0S840,0,720,0S480,0,360,0S120,0,60,0H0V1443.6z"/>
</svg>
